HIERARCHY
ROOT Hips
{
	OFFSET 0.000000 0.000000 0.000000
	CHANNELS 6 Xposition Yposition Zposition Zrotation Yrotation Xrotation 
	JOINT LHipJoint
	{
		OFFSET 0.000000 0.000000 0.000000
		CHANNELS 3 Zrotation Yrotation Xrotation
		JOINT LeftUpLeg
		{
			OFFSET 1.363060 -1.794630 0.839290
			CHANNELS 3 Zrotation Yrotation Xrotation
			JOINT LeftLeg
			{
				OFFSET 2.448110 -6.726130 0.000000
				CHANNELS 3 Zrotation Yrotation Xrotation
				JOINT LeftFoot
				{
					OFFSET 2.562200 -7.039590 0.000000
					CHANNELS 3 Zrotation Yrotation Xrotation
					JOINT LeftToeBase
					{
						OFFSET 0.157640 -0.433110 2.322550
						CHANNELS 3 Zrotation Yrotation Xrotation
						End Site
						{
							OFFSET 0.000000 0.000000 0.000000
						}
					}
				}
			}
		}
	}
	JOINT RHipJoint
	{
		OFFSET 0.000000 0.000000 0.000000
		CHANNELS 3 Zrotation Yrotation Xrotation
		JOINT RightUpLeg
		{
			OFFSET -1.305520 -1.794630 0.839290
			CHANNELS 3 Zrotation Yrotation Xrotation
			JOINT RightLeg
			{
				OFFSET -2.542530 -6.985550 0.000000
				CHANNELS 3 Zrotation Yrotation Xrotation
				JOINT RightFoot
				{
					OFFSET -2.568260 -7.056230 0.000000
					CHANNELS 3 Zrotation Yrotation Xrotation
					JOINT RightToeBase
					{
						OFFSET -0.164730 -0.452590 2.363150
						CHANNELS 3 Zrotation Yrotation Xrotation
						End Site
						{
							OFFSET 0.000000 0.000000 0.000000
						}
					}
				}
			}
		}
	}
	JOINT LowerBack
	{
		OFFSET 0.000000 0.000000 0.000000
		CHANNELS 3 Zrotation Yrotation Xrotation
		JOINT Spine
		{
			OFFSET 0.028270 2.035590 -0.193380
			CHANNELS 3 Zrotation Yrotation Xrotation
			JOINT Spine1
			{
				OFFSET 0.056720 2.048850 -0.042750
				CHANNELS 3 Zrotation Yrotation Xrotation
				JOINT Neck
				{
					OFFSET 0.000000 0.000000 0.000000
					CHANNELS 3 Zrotation Yrotation Xrotation
					JOINT Neck1
					{
						OFFSET -0.054170 1.746240 0.172020
						CHANNELS 3 Zrotation Yrotation Xrotation
						JOINT Head
						{
							OFFSET 0.104070 1.761360 -0.123970
							CHANNELS 3 Zrotation Yrotation Xrotation
							End Site
							{
								OFFSET 0.000000 0.000000 0.000000
							}
						}
					}
				}
				JOINT LeftShoulder
				{
					OFFSET 0.000000 0.000000 0.000000
					CHANNELS 3 Zrotation Yrotation Xrotation
					JOINT LeftArm
					{
						OFFSET 3.362410 1.200890 -0.311210
						CHANNELS 3 Zrotation Yrotation Xrotation
						JOINT LeftForeArm
						{
							OFFSET 4.983000 -0.000000 -0.000000
							CHANNELS 3 Zrotation Yrotation Xrotation
							JOINT LeftHand
							{
								OFFSET 3.483560 -0.000000 -0.000000
								CHANNELS 3 Zrotation Yrotation Xrotation
								JOINT LeftFingerBase
								{
									OFFSET 0.000000 0.000000 0.000000
									CHANNELS 3 Zrotation Yrotation Xrotation
									JOINT LeftHandIndex1
									{
										OFFSET 0.715260 -0.000000 -0.000000
										CHANNELS 3 Zrotation Yrotation Xrotation
										End Site
										{
											OFFSET 0.000000 0.000000 0.000000
										}
									}
								}
								JOINT LThumb
								{
									OFFSET 0.000000 0.000000 0.000000
									CHANNELS 3 Zrotation Yrotation Xrotation
									End Site
									{
										OFFSET 0.000000 0.000000 0.000000
									}
								}
							}
						}
					}
				}
				JOINT RightShoulder
				{
					OFFSET 0.000000 0.000000 0.000000
					CHANNELS 3 Zrotation Yrotation Xrotation
					JOINT RightArm
					{
						OFFSET -3.136600 1.374050 -0.404650
						CHANNELS 3 Zrotation Yrotation Xrotation
						JOINT RightForeArm
						{
							OFFSET -5.241900 -0.000000 -0.000000
							CHANNELS 3 Zrotation Yrotation Xrotation
							JOINT RightHand
							{
								OFFSET -3.444170 -0.000000 -0.000000
								CHANNELS 3 Zrotation Yrotation Xrotation
								JOINT RightFingerBase
								{
									OFFSET 0.000000 0.000000 0.000000
									CHANNELS 3 Zrotation Yrotation Xrotation
									JOINT RightHandIndex1
									{
										OFFSET -0.622530 -0.000000 -0.000000
										CHANNELS 3 Zrotation Yrotation Xrotation
										End Site
										{
											OFFSET 0.000000 0.000000 0.000000
										}
									}
								}
								JOINT RThumb
								{
									OFFSET 0.000000 0.000000 0.000000
									CHANNELS 3 Zrotation Yrotation Xrotation
									End Site
									{
										OFFSET 0.000000 0.000000 0.000000
									}
								}
							}
						}
					}
				}
			}
		}
	}
}
MOTION
Frames: 9
Frame Time: 0.008333
1.372094 17.397159 4.409836 -0.862752 0.496960 -4.259135 -8.306224 -2.549720 1.757737 -2.282250 9.070919 -18.400574 5.910043 15.621905 45.224202 -4.553384 13.766717 0.592934 0.497100 -4.520100 -12.544700 7.280252 2.703652 0.967746 5.736875 -7.342947 -18.253625 -7.044600 -16.512771 49.443144 4.876833 -14.516150 -5.278311 -0.415100 4.135400 -11.458000 0.654737 0.124791 8.995601 1.377610 0.412085 -2.512880 0.942997 -0.053958 0.890898 1.037224 0.816508 -19.919340 4.133520 0.666790 9.700656 -2.606800 0.554400 10.436300 3.978381 -4.474143 -0.434112 -32.312128 -38.031757 -5.732934 50.084622 -48.088389 -30.079812 0.985201 -1.136194 13.607461 -12.478411 -3.270202 0.576800 -7.125000 0.000000 0.000000 -29.643000 26.825600 15.060700 -2.289756 4.933444 -0.098489 15.754699 36.500251 -5.455283 -49.208383 47.698069 -29.833002 -1.168504 1.258432 1.827155 11.579599 -0.792521 -0.461000 7.125000 0.000000 0.000000 30.273900 -30.801700 12.069300 
1.372200 17.396948 4.410996 -0.846383 0.500227 -4.260280 -8.308620 -2.550481 1.759008 -2.297477 9.070768 -18.395486 5.908538 15.622647 45.225305 -4.552147 13.763989 0.587483 0.497100 -4.520000 -12.544500 7.278372 2.702091 0.967126 5.719265 -7.339131 -18.246571 -7.047621 -16.514476 49.450630 4.875760 -14.514102 -5.283109 -0.415300 4.136500 -11.461100 0.638053 0.126102 8.988637 1.376875 0.411759 -2.510801 0.946309 -0.053799 0.894656 1.043436 0.828752 -19.875360 4.118639 0.680735 9.700574 -2.615800 0.559900 10.424700 3.979068 -4.473521 -0.432156 -32.311904 -38.025171 -5.745186 50.104694 -48.097015 -30.100494 0.984711 -1.137408 13.585788 -12.495427 -3.226062 0.566300 -7.125000 0.000000 0.000000 -29.665800 26.865400 15.043000 -2.287834 4.929570 -0.095731 15.729806 36.489523 -5.484083 -49.194583 47.694388 -29.824376 -1.168570 1.258373 1.857783 11.573686 -0.780717 -0.457900 7.125000 0.000000 0.000000 30.266600 -30.790900 12.074700 
1.372200 17.396631 4.412156 -0.829151 0.501573 -4.259005 -8.310637 -2.551680 1.759855 -2.313386 9.074584 -18.394006 5.907167 15.623246 45.226668 -4.549336 13.758010 0.583403 0.496800 -4.518900 -12.541200 7.275918 2.700926 0.965638 5.701241 -7.336764 -18.243937 -7.051391 -16.516376 49.460071 4.874030 -14.510565 -5.287291 -0.415600 4.138300 -11.466000 0.619637 0.128379 8.978772 1.376121 0.412354 -2.508065 0.949638 -0.053092 0.900220 1.054047 0.844793 -19.822003 4.100184 0.697986 9.698497 -2.627500 0.566800 10.409500 3.980322 -4.473241 -0.429504 -32.309554 -38.018318 -5.764907 50.128385 -48.107382 -30.125455 0.984345 -1.138345 13.573834 -12.513742 -3.189246 0.557800 -7.125000 0.000000 0.000000 -29.687600 26.898100 15.030400 -2.285734 4.924804 -0.093131 15.703444 36.484349 -5.519159 -49.180321 47.690956 -29.815592 -1.168761 1.258526 1.867770 11.571877 -0.777477 -0.457100 7.125000 0.000000 0.000000 30.264600 -30.788100 12.076100 
1.372094 17.396315 4.413106 -0.812732 0.501419 -4.256733 -8.312267 -2.553095 1.760410 -2.328405 9.079892 -18.395198 5.906240 15.623814 45.228634 -4.545937 13.750889 0.579627 0.496500 -4.517700 -12.537900 7.273432 2.700205 0.963723 5.684667 -7.333727 -18.244209 -7.055906 -16.518728 49.471432 4.873845 -14.510220 -5.290234 -0.416700 4.143500 -11.480700 0.602486 0.132428 8.970270 1.375237 0.415367 -2.505875 0.951659 -0.051015 0.902650 1.067190 0.861908 -19.765349 4.079001 0.715876 9.693958 -2.641200 0.573600 10.392300 3.981990 -4.473589 -0.427156 -32.306732 -38.014631 -5.784890 50.150616 -48.116840 -30.148677 0.984063 -1.138968 13.569517 -12.528434 -3.162664 0.551800 -7.125000 0.000000 0.000000 -29.704300 26.921600 15.022000 -2.283317 4.919794 -0.090200 15.678241 36.476219 -5.553560 -49.171025 47.689455 -29.811728 -1.169308 1.258854 1.853534 11.577617 -0.782657 -0.458700 7.125000 0.000000 0.000000 30.270500 -30.792900 12.075000 
1.372094 17.395787 4.413949 -0.796692 0.500505 -4.253279 -8.313579 -2.554797 1.760700 -2.343313 9.087248 -18.399521 5.905959 15.624477 45.231852 -4.543274 13.745112 0.576426 0.496700 -4.518300 -12.539500 7.270854 2.699867 0.961443 5.668888 -7.330534 -18.247774 -7.061005 -16.521257 49.484014 4.875001 -14.512808 -5.291263 -0.417800 4.148800 -11.495700 0.586593 0.136920 8.962156 1.374293 0.419164 -2.504480 0.952461 -0.048470 0.903034 1.081748 0.881767 -19.715036 4.053141 0.736763 9.686304 -2.657500 0.581100 10.375300 3.984129 -4.474817 -0.425073 -32.302944 -38.012623 -5.808769 50.168589 -48.124233 -30.167997 0.983956 -1.139477 13.578299 -12.542783 -3.144482 0.547800 -7.125000 0.000000 0.000000 -29.718700 26.937200 15.018600 -2.280586 4.914879 -0.087355 15.654564 36.467061 -5.587950 -49.166121 47.689700 -29.812459 -1.170897 1.259369 1.823395 11.603038 -0.792992 -0.462200 7.125000 0.000000 0.000000 30.292100 -30.801100 12.079300 
1.372094 17.395260 4.414582 -0.784953 0.499534 -4.249224 -8.314152 -2.556506 1.760506 -2.354325 9.094544 -18.405951 5.906565 15.625402 45.236900 -4.539987 13.738199 0.573936 0.497100 -4.520400 -12.545600 7.268625 2.699951 0.959225 5.657820 -7.326978 -18.253461 -7.066265 -16.523934 49.497295 4.878055 -14.519170 -5.290495 -0.419300 4.156400 -11.517100 0.575728 0.140837 8.955760 1.373708 0.422563 -2.503998 0.950835 -0.046014 0.900960 1.101770 0.906375 -19.674825 4.021388 0.762963 9.676100 -2.677700 0.590200 10.360200 3.986967 -4.477115 -0.422988 -32.297389 -38.009835 -5.835557 50.186555 -48.131014 -30.187393 0.983838 -1.140166 13.591706 -12.557728 -3.123672 0.543200 -7.125000 0.000000 0.000000 -29.734300 26.955100 15.014100 -2.277361 4.910191 -0.085040 15.634635 36.459334 -5.621141 -49.164186 47.690840 -29.815967 -1.173214 1.260142 1.791174 11.643561 -0.807610 -0.467500 7.125000 0.000000 0.000000 30.325900 -30.812300 12.087400 
1.371989 17.394733 4.415004 -0.778902 0.497413 -4.246137 -8.313629 -2.557696 1.760039 -2.359622 9.103055 -18.413633 5.908403 15.626637 45.243855 -4.535933 13.729547 0.573294 0.497500 -4.522000 -12.550200 7.266949 2.700347 0.957361 5.652778 -7.321808 -18.259103 -7.071176 -16.526771 49.510603 4.880931 -14.525435 -5.289167 -0.420700 4.163200 -11.536400 0.571513 0.144228 8.952809 1.373546 0.426146 -2.504385 0.947513 -0.043561 0.897641 1.119837 0.930476 -19.654684 3.987993 0.790533 9.669295 -2.698000 0.599500 10.352800 3.990003 -4.479784 -0.421676 -32.289479 -38.007558 -5.865333 50.201839 -48.136212 -30.203990 0.983925 -1.141068 13.604710 -12.577927 -3.101449 0.538500 -7.125000 0.000000 0.000000 -29.753800 26.974100 15.011300 -2.274174 4.906842 -0.083510 15.616463 36.451731 -5.655410 -49.165732 47.692679 -29.822724 -1.176168 1.260974 1.771999 11.696063 -0.819616 -0.472600 7.125000 0.000000 0.000000 30.367800 -30.820100 12.102600 
1.371883 17.394205 4.415215 -0.777582 0.495145 -4.244460 -8.312254 -2.558255 1.759615 -2.360187 9.111516 -18.421004 5.910920 15.627880 45.251851 -4.530560 13.718354 0.573556 0.497900 -4.523800 -12.555300 7.265878 2.700885 0.956054 5.652521 -7.316382 -18.264220 -7.075404 -16.529317 49.522923 4.884059 -14.532044 -5.288213 -0.422000 4.169600 -11.554400 0.572832 0.146295 8.954357 1.373380 0.428806 -2.505867 0.943279 -0.041707 0.892142 1.125045 0.950765 -19.652990 3.960558 0.817825 9.667363 -2.711600 0.608500 10.353400 3.992190 -4.481842 -0.420872 -32.283378 -38.001070 -5.893621 50.220261 -48.142146 -30.223362 0.984309 -1.141742 13.617935 -12.604387 -3.085381 0.535600 -7.125000 0.000000 0.000000 -29.775900 26.986900 15.015400 -2.271821 4.905228 -0.082999 15.602818 36.443950 -5.686971 -49.170652 47.694589 -29.831849 -1.178807 1.262120 1.774459 11.745011 -0.832979 -0.477900 7.125000 0.000000 0.000000 30.407500 -30.829100 12.115700 
1.371672 17.393678 4.415426 -0.781473 0.490758 -4.245078 -8.309921 -2.557775 1.759487 -2.355154 9.121576 -18.426587 5.914152 15.629312 45.260782 -4.524284 13.705517 0.574602 0.498200 -4.525100 -12.559000 7.265499 2.701480 0.955235 5.657767 -7.308477 -18.266595 -7.078647 -16.531850 49.534220 4.886087 -14.536589 -5.289297 -0.423100 4.174900 -11.569100 0.578643 0.148033 8.959925 1.373392 0.431792 -2.507563 0.939331 -0.040151 0.887501 1.118737 0.964022 -19.672019 3.939707 0.840353 9.671112 -2.719100 0.615500 10.362600 3.993600 -4.483259 -0.420791 -32.275509 -37.992802 -5.924212 50.240068 -48.148389 -30.244084 0.984949 -1.142178 13.626807 -12.634519 -3.075456 0.534300 -7.125000 0.000000 0.000000 -29.798900 26.993900 15.024900 -2.270294 4.905471 -0.083323 15.588528 36.436792 -5.717905 -49.174306 47.694973 -29.838801 -1.180468 1.263217 1.798596 11.775583 -0.841175 -0.481200 7.125000 0.000000 0.000000 30.432700 -30.834600 12.124200 
